<?xml version="1.0" encoding="UTF-8"?>
<svg id="Capa_1" xmlns="http://www.w3.org/2000/svg" version="1.1" viewBox="0 0 500 486.68">
  <!-- Generator: Adobe Illustrator 30.1.0, SVG Export Plug-In . SVG Version: 2.1.1 Build 136)  -->
  <defs>
    <style>
      .st0 {
        fill: #1800ad;
      }
    </style>
  </defs>
  <polygon class="st0" points="90.16 271.56 117.56 228.61 135.09 228.61 149.65 271.56 134.84 271.56 125.22 244.16 106.46 271.56 90.16 271.56"/>
  <polygon class="st0" points="155.58 244.66 149.65 271.56 165.2 271.56 170.14 244.66 155.58 244.66"/>
  <path class="st0" d="M158.48,228.61l-1.75,12.5h49.36s1.8,1.34-.12,3.18l-32.03.37-3.79,26.91h12.21s1.84.19,2.22-2.73l1.39-10.72h8.3l6.33,13.45h15.94s-7.1-15.46-7.1-15.46c0,0,9.63-2.89,11.25-9.06,2.64-10.05,1.05-16.79-9.39-17.8l-52.82-.62Z"/>
  <polygon class="st0" points="231.8 272.26 239.39 228.61 254.35 228.61 252.33 243.22 277.62 243.46 280.24 228.61 313.19 228.61 311.04 241.03 293.01 240.95 288.01 272.26 272.61 272.26 274.55 257.25 249.11 257.08 246.95 272.26 232.02 272.26 231.8 272.26"/>
  <polygon class="st0" points="295.61 244.33 310.32 244.33 306 272.26 290.78 272.26 295.61 244.33"/>
  <polygon class="st0" points="314.54 228.61 327.97 272.26 347.03 272.26 376 228.61 356.79 228.61 339.45 254.26 338.84 254.26 331.02 228.61 314.54 228.61"/>
  <polygon class="st0" points="380.26 228.61 409.84 228.61 407.22 240.76 372.19 240.76 380.26 228.61"/>
  <polygon class="st0" points="369.81 244.33 362.27 256.01 403.88 256.4 406.78 244.33 369.81 244.33"/>
  <polygon class="st0" points="359.83 259.47 351.57 272.26 401.64 272.26 403.88 259.47 359.83 259.47"/>
</svg>